<svg width="261" height="200" viewBox="0 0 261 200" fill="none" xmlns="http://www.w3.org/2000/svg">
<path d="M247.124 152.286C238.728 140.596 200.861 130.054 154.982 127.432C109.102 124.81 70.2475 130.982 60.5887 141.58L58.5582 141.47L58.2838 146.332C58.2838 146.387 58.2838 146.441 58.2838 146.496C57.5155 160.097 99.5532 173.535 152.183 176.54C204.812 179.544 248.112 171.023 248.935 157.421H249.1L249.319 152.395L247.124 152.286Z" fill="#CEDCE0"/>
<path fill-rule="evenodd" clip-rule="evenodd" d="M155.281 122.55C207.93 125.599 249.972 139.082 249.186 152.665C248.399 166.249 205.081 174.789 152.432 171.74C99.7836 168.692 57.7409 155.209 58.5274 141.626C59.3139 128.042 102.632 119.502 155.281 122.55C207.93 125.599 155.281 122.55 155.281 122.55Z" fill="#FEFFF8"/>
<g opacity="0.5">
<path fill-rule="evenodd" clip-rule="evenodd" d="M154.374 137.76C177.581 139.103 196.114 145.051 195.767 151.045C195.42 157.039 176.325 160.808 153.117 159.464C129.909 158.121 111.377 152.172 111.724 146.179C112.071 140.185 131.166 136.416 154.374 137.76C177.581 139.103 154.374 137.76 154.374 137.76Z" fill="#CFD3D6"/>
</g>
<path fill-rule="evenodd" clip-rule="evenodd" d="M128.146 135.243H125.841V138.793C125.841 140.377 125.402 141.579 124.523 142.399C123.645 143.218 122.493 143.655 121.066 143.655C119.639 143.655 118.487 143.218 117.609 142.399C116.731 141.579 116.292 140.377 116.292 138.793V135.243H101.035C99.7179 135.243 98.7301 134.86 97.9618 134.096C97.1935 133.331 96.8093 132.348 96.8093 131.2C96.8093 130.053 97.1935 128.852 98.0167 127.704L116.731 101.102C117.225 100.392 117.883 99.8457 118.596 99.5179C119.365 99.1902 120.133 98.9717 120.956 98.9717C122.273 98.9717 123.371 99.4087 124.359 100.228C125.347 101.102 125.786 102.249 125.786 103.779V127.814H128.091C131.219 127.814 132.755 129.015 132.755 131.474C132.755 133.986 131.219 135.243 128.146 135.243ZM116.292 114.048L106.688 127.814H116.292V114.048Z" fill="#4D4D4D"/>
<path fill-rule="evenodd" clip-rule="evenodd" d="M137.42 121.259C137.42 113.994 138.847 108.368 141.646 104.489C144.445 100.611 148.561 98.6992 153.939 98.6992C159.317 98.6992 163.378 100.611 166.232 104.489C169.031 108.368 170.458 113.94 170.458 121.259C170.458 128.579 169.031 134.206 166.232 138.084C163.433 141.962 159.317 143.874 153.939 143.874C148.561 143.874 144.445 141.962 141.646 138.084C138.847 134.206 137.42 128.579 137.42 121.259ZM160.854 121.205C160.854 115.851 160.305 112.028 159.207 109.624C158.11 107.275 156.354 106.074 153.884 106.074C151.469 106.074 149.713 107.275 148.561 109.679C147.463 112.082 146.914 115.906 146.914 121.205C146.914 126.503 147.463 130.327 148.561 132.785C149.658 135.189 151.414 136.391 153.884 136.391C156.299 136.445 158.11 135.243 159.207 132.785C160.305 130.382 160.854 126.503 160.854 121.205Z" fill="#4D4D4D"/>
<path fill-rule="evenodd" clip-rule="evenodd" d="M207.227 135.243H204.922V138.793C204.922 140.377 204.483 141.579 203.605 142.399C202.727 143.218 201.574 143.655 200.148 143.655C198.721 143.655 197.568 143.218 196.69 142.399C195.812 141.579 195.373 140.377 195.373 138.793V135.243H180.117C178.799 135.243 177.812 134.86 177.043 134.096C176.275 133.331 175.891 132.348 175.891 131.2C175.891 130.053 176.275 128.852 177.098 127.704L195.812 101.102C196.306 100.392 196.965 99.8457 197.678 99.5179C198.446 99.1902 199.215 98.9717 200.038 98.9717C201.355 98.9717 202.453 99.4087 203.44 100.228C204.428 101.102 204.867 102.249 204.867 103.779V127.814H207.172C210.3 127.814 211.837 129.015 211.837 131.474C211.837 133.986 210.3 135.243 207.227 135.243ZM195.428 114.048L185.769 127.814H195.428V114.048Z" fill="#4D4D4D"/>
<path fill-rule="evenodd" clip-rule="evenodd" d="M128.639 135.243H126.334V138.793C126.334 140.377 125.895 141.579 125.017 142.399C124.139 143.218 122.987 143.655 121.56 143.655C120.133 143.655 118.981 143.218 118.103 142.399C117.224 141.579 116.785 140.377 116.785 138.793V135.243H101.529C100.212 135.243 99.224 134.86 98.4557 134.096C97.6874 133.331 97.3032 132.348 97.3032 131.2C97.3032 130.053 97.6874 128.852 98.5106 127.704L117.224 101.102C117.718 100.392 118.377 99.8457 119.09 99.5179C119.859 99.1902 120.627 98.9717 121.45 98.9717C122.767 98.9717 123.865 99.4087 124.853 100.228C125.841 101.102 126.28 102.249 126.28 103.779V127.814H128.585C131.713 127.814 133.249 129.015 133.249 131.474C133.249 133.986 131.713 135.243 128.639 135.243ZM116.785 114.048L107.182 127.814H116.785V114.048Z" fill="#427AA1"/>
<path fill-rule="evenodd" clip-rule="evenodd" d="M137.859 121.259C137.859 113.994 139.286 108.368 142.085 104.489C144.884 100.611 149 98.6992 154.378 98.6992C159.756 98.6992 163.817 100.611 166.671 104.489C169.47 108.368 170.897 113.94 170.897 121.259C170.897 128.579 169.47 134.206 166.671 138.084C163.872 141.962 159.756 143.874 154.378 143.874C149 143.874 144.939 141.962 142.085 138.084C139.286 134.206 137.859 128.579 137.859 121.259ZM161.348 121.205C161.348 115.851 160.799 112.028 159.701 109.624C158.604 107.275 156.847 106.074 154.378 106.074C151.963 106.074 150.207 107.275 149.055 109.679C147.957 112.082 147.408 115.906 147.408 121.205C147.408 126.503 147.957 130.327 149.055 132.785C150.152 135.189 151.908 136.391 154.378 136.391C156.793 136.445 158.604 135.243 159.701 132.785C160.799 130.382 161.348 126.503 161.348 121.205Z" fill="#427AA1"/>
<path fill-rule="evenodd" clip-rule="evenodd" d="M207.721 135.243H205.416V138.793C205.416 140.377 204.977 141.579 204.099 142.399C203.221 143.218 202.068 143.655 200.642 143.655C199.215 143.655 198.062 143.218 197.184 142.399C196.306 141.579 195.867 140.377 195.867 138.793V135.243H180.61C179.293 135.243 178.306 134.86 177.537 134.096C176.769 133.331 176.385 132.348 176.385 131.2C176.385 130.053 176.769 128.852 177.592 127.704L196.306 101.102C196.8 100.392 197.459 99.8457 198.172 99.5179C198.94 99.1902 199.709 98.9717 200.532 98.9717C201.849 98.9717 202.946 99.4087 203.934 100.228C204.922 101.102 205.361 102.249 205.361 103.779V127.814H207.666C210.794 127.814 212.331 129.015 212.331 131.474C212.331 133.986 210.794 135.243 207.721 135.243ZM195.867 114.048L186.263 127.814H195.867V114.048Z" fill="#427AA1"/>
<path fill-rule="evenodd" clip-rule="evenodd" d="M125.676 135.243H123.371V138.793C123.371 140.377 122.932 141.579 122.054 142.399C121.176 143.218 120.023 143.655 118.596 143.655C117.169 143.655 116.017 143.218 115.139 142.399C114.261 141.579 113.822 140.377 113.822 138.793V135.243H98.5653C97.2482 135.243 96.2604 134.86 95.4921 134.096C94.7238 133.331 94.3396 132.348 94.3396 131.2C94.3396 130.053 94.7238 128.852 95.5469 127.704L114.261 101.102C114.755 100.392 115.413 99.8457 116.127 99.5179C116.895 99.1902 117.663 98.9717 118.487 98.9717C119.804 98.9717 120.901 99.4087 121.889 100.228C122.877 101.102 123.316 102.249 123.316 103.779V127.814H125.621C128.749 127.814 130.286 129.015 130.286 131.474C130.286 133.986 128.749 135.243 125.676 135.243ZM113.877 114.048L104.218 127.814H113.877V114.048Z" fill="#041724"/>
<path fill-rule="evenodd" clip-rule="evenodd" d="M134.95 121.259C134.95 113.994 136.377 108.368 139.176 104.489C141.975 100.611 146.091 98.6992 151.469 98.6992C156.847 98.6992 160.908 100.611 163.762 104.489C166.561 108.368 167.988 113.94 167.988 121.259C167.988 128.579 166.561 134.206 163.762 138.084C160.963 141.962 156.847 143.874 151.469 143.874C146.091 143.874 142.03 141.962 139.176 138.084C136.377 134.206 134.95 128.579 134.95 121.259ZM158.439 121.205C158.439 115.851 157.89 112.028 156.792 109.624C155.695 107.275 153.939 106.074 151.469 106.074C149.054 106.074 147.298 107.275 146.146 109.679C145.048 112.082 144.499 115.906 144.499 121.205C144.499 126.503 145.048 130.327 146.146 132.785C147.243 135.189 149 136.391 151.469 136.391C153.884 136.445 155.64 135.243 156.792 132.785C157.89 130.382 158.439 126.503 158.439 121.205Z" fill="#041724"/>
<path fill-rule="evenodd" clip-rule="evenodd" d="M204.812 135.243H202.507V138.793C202.507 140.377 202.068 141.579 201.19 142.399C200.312 143.218 199.159 143.655 197.733 143.655C196.306 143.655 195.153 143.218 194.275 142.399C193.397 141.579 192.958 140.377 192.958 138.793V135.243H177.702C176.384 135.243 175.397 134.86 174.628 134.096C173.86 133.331 173.476 132.348 173.476 131.2C173.476 130.053 173.86 128.852 174.683 127.704L193.397 101.047C193.891 100.337 194.55 99.791 195.263 99.4632C196.031 99.1355 196.8 98.917 197.623 98.917C198.94 98.917 200.038 99.354 201.025 100.173C202.013 101.047 202.452 102.194 202.452 103.724V127.814H204.757C207.885 127.814 209.422 129.015 209.422 131.474C209.422 133.986 207.885 135.243 204.812 135.243ZM192.958 114.048L183.354 127.814H192.958V114.048Z" fill="#041724"/>
<path d="M222.483 69.4742C222.703 69.0918 223.197 68.9279 223.526 69.2011L230.825 74.3358C231.209 74.6089 231.209 75.1552 230.88 75.4829L214.58 88.5929C213.977 89.0846 213.154 88.4291 213.483 87.719L222.483 69.4742Z" fill="#DD2317"/>
<path d="M239.715 76.3032C240.099 76.0301 240.593 76.1393 240.813 76.5763L244.929 84.497C245.148 84.934 244.929 85.4256 244.435 85.5348L223.91 89.7956C223.087 89.8502 222.648 88.867 223.306 88.43L239.715 76.3032Z" fill="#DD2317"/>
<path d="M237.026 92.9645C237.465 92.8553 237.904 93.183 237.904 93.62L238.179 98.864C238.179 99.3557 237.795 99.6834 237.301 99.6288L225.227 97.0068C224.459 96.8429 224.459 95.805 225.227 95.5865L237.026 92.9645Z" fill="#DD2317"/>
<path d="M114.041 8.07672C72.7718 22.0061 49.2285 64.2859 57.8446 105.692L57.9543 105.637C57.9543 105.692 57.9543 105.692 58.0092 105.746C61.9057 117.218 100.98 114.377 145.213 99.4645C189.446 84.5518 222.209 63.1388 218.312 51.6675C218.312 51.6129 218.257 51.6129 218.257 51.5583H218.312C199.873 13.43 155.311 -5.85267 114.041 8.07672Z" fill="url(#paint0_linear_297_612)"/>
<path d="M110.968 0.483201C107.84 1.68495 106.084 5.23558 107.071 8.45846C107.456 9.76946 108.224 10.862 109.212 11.6813C110.309 12.61 111.187 13.8117 111.626 15.1773V15.232C112.23 16.98 114.096 17.9086 115.852 17.3077L117.828 16.6522C119.639 16.0513 120.572 14.1395 119.968 12.3368C119.474 10.9712 119.474 9.44171 119.803 8.02146C120.078 6.87433 120.023 5.61796 119.639 4.47083C118.432 0.920201 114.535 -0.882426 110.968 0.483201Z" fill="#3B5059"/>
<path d="M218.148 56.311C181.378 87.6111 122.767 102.469 91.3761 99.0824C69.2596 96.6789 63.9363 75.0474 64.5949 51.5586C56.6373 67.9461 53.8934 86.9556 57.8447 105.692L57.9544 105.637C57.9544 105.692 57.9544 105.692 58.0093 105.747C61.9058 117.273 100.98 114.432 145.213 99.5194C184.068 86.4094 214.032 68.3285 218.148 56.311Z" fill="#DFE3E6"/>
<path d="M255.301 127.597C254.862 128.416 253.874 128.798 252.996 128.416C252.008 128.034 251.569 126.832 252.063 125.903L254.807 120.823C255.191 120.168 254.862 119.294 254.149 119.02C253.545 118.747 252.832 119.02 252.502 119.621L249.484 125.248C249.045 126.067 248.057 126.449 247.179 126.067C246.191 125.685 245.752 124.483 246.246 123.554L248.99 118.474C249.374 117.819 249.045 116.945 248.332 116.672C247.728 116.398 247.014 116.672 246.685 117.272L242.898 124.374L242.514 125.084L241.966 126.122C241.087 127.76 241.856 129.672 243.667 130.765L218.971 175.393C217.983 177.196 219.081 179.436 221.386 180.364C223.691 181.293 226.325 180.583 227.313 178.78L250.801 133.66C252.887 134.206 255.137 133.441 256.015 131.857L256.563 130.819L256.948 130.109L260.625 123.281C261.009 122.626 260.679 121.752 259.966 121.479C259.362 121.151 258.649 121.369 258.32 121.97L255.301 127.597Z" fill="url(#paint1_linear_297_612)"/>
<path d="M9.98975 112.192C21.5144 116.617 30.7342 123.172 36.7161 131.202L61.2472 164.195C61.796 164.96 61.3021 165.943 60.1496 166.38L46.3749 171.788C45.2224 172.225 43.7955 172.006 43.2467 171.242L0.440715 112.028C-0.547116 110.663 1.92246 109.078 3.89812 109.843L9.98975 112.192Z" fill="url(#paint2_linear_297_612)"/>
<path d="M75.5708 189.323L59.4911 167.746L48.8994 171.952L46.2651 170.259V172.99L63.8815 196.643C65.6376 198.992 70.028 199.756 73.65 198.281C76.2842 197.244 77.8208 195.332 77.8208 193.474V190.798L75.5708 189.323Z" fill="#041724"/>
<path d="M77.1074 188.613L59.4911 165.015L46.2651 170.204L63.8815 193.857C65.6376 196.206 70.028 196.97 73.65 195.495C77.327 194.075 78.8636 190.962 77.1074 188.613Z" fill="#427AA1"/>
<path opacity="0.3" d="M40.6124 136.445L36.716 131.201C35.5086 129.617 34.1915 128.032 32.7647 126.558L9.6604 124.755L18.057 136.445H40.6124Z" fill="#E5E5E5"/>
<path opacity="0.3" d="M23.3254 143.71L26.8926 148.626H49.6676L45.9907 143.71H23.3254Z" fill="#E5E5E5"/>
<defs>
<linearGradient id="paint0_linear_297_612" x1="56.0769" y1="3.55273" x2="56.0769" y2="112.794" gradientUnits="userSpaceOnUse">
<stop stop-color="white"/>
<stop offset="1" stop-color="#EAE7E7"/>
</linearGradient>
<linearGradient id="paint1_linear_297_612" x1="218.607" y1="116.565" x2="218.607" y2="180.772" gradientUnits="userSpaceOnUse">
<stop stop-color="#A2AFB5"/>
<stop offset="1" stop-color="#BEC8CC"/>
</linearGradient>
<linearGradient id="paint2_linear_297_612" x1="0.21582" y1="109.644" x2="0.21582" y2="172.011" gradientUnits="userSpaceOnUse">
<stop stop-color="#A2AFB5"/>
<stop offset="1" stop-color="#BEC8CC"/>
</linearGradient>
</defs>
</svg>